#tb 0: 1/1000
0,          0,          0,        0,     3366, 6821eb3fcd1d10db32eff70468dcf9c1
0,         33,         33,        0,     3366, ed0094d347d9f250d46b4903cbc14801
0,         66,         66,        0,     3366, fd018555dc9a62b8074d46e7c0fd0b40
0,        100,        100,        0,     3366, 05d5baf9f2e62bbeeb3809a099e84147
0,        133,        133,        0,     3366, 7a150c265214269c08e05fe4f296122d
0,        166,        166,        0,     3366, 9a7ae61d4bb125ee4c4ccce9cc1c3664
0,        200,        200,        0,     3366, 5a88fd6d96dcbc4255e98dfe19ff96b8
0,        233,        233,        0,     3366, 4192c273a46b2b196c871ead0e61ec71
0,        266,        266,        0,     3366, e79ebfc47e755f5db221f392c3216278
0,        300,        300,        0,     3366, b995c5f483a2e553baf4f66d1a47fc57
